<svg width="672" height="210" viewBox="0 0 672 210" fill="none" xmlns="http://www.w3.org/2000/svg">
<g clip-path="url(#clip0_1_102)">
<path d="M565.558 127.839H569.162V41.7705H572.871V117.645H656.245V41.7705H661.151V36.3747H585.687V0H583.208V36.3747H576.729V13.4373H574.25V36.3747H551.198V41.7705H565.558L565.558 127.839ZM641.927 48.6359H647.782V54.49H641.927V48.6359ZM641.927 56.6255H647.782V62.5109H641.927V56.6255ZM641.927 64.6359H647.782V70.5056H641.927V64.6359ZM641.927 72.6307H647.782V78.5056H641.927V72.6307ZM641.927 80.6463H647.782V86.5056H641.927V80.6463ZM641.927 88.6411H647.782V94.5265H641.927V88.6411ZM641.927 96.6515H647.782V102.521H641.927V96.6515ZM641.927 104.651H647.782V110.526H641.927V104.651ZM633.328 48.6355H639.219V54.4896H633.328V48.6355ZM633.328 56.6251H639.219V62.5105H633.328V56.6251ZM633.328 64.6355H639.219V70.5052H633.328V64.6355ZM633.328 72.6303H639.219V78.5052H633.328V72.6303ZM633.328 80.6459H639.219V86.5052H633.328V80.6459ZM633.328 88.6407H639.219V94.5261H633.328V88.6407ZM633.328 96.6511H639.219V102.521H633.328V96.6511ZM633.328 104.651H639.219V110.526H633.328V104.651ZM624.745 48.6351H630.636V54.4892H624.745V48.6351ZM624.745 56.6247H630.636V62.5101H624.745V56.6247ZM624.745 64.6351H630.636V70.5048H624.745V64.6351ZM624.745 72.6299H630.636V78.5048H624.745V72.6299ZM624.745 80.6455H630.636V86.5048H624.745V80.6455ZM624.745 88.6403H630.636V94.5257H624.745V88.6403ZM624.745 96.6507H630.636V102.52H624.745V96.6507ZM624.745 104.651H630.636V110.526H624.745V104.651ZM616.188 48.6347H622.063V54.4888H616.188V48.6347ZM616.188 56.6243H622.063V62.5097H616.188V56.6243ZM616.188 64.6347H622.063V70.5044H616.188V64.6347ZM616.188 72.6295H622.063V78.5044H616.188V72.6295ZM616.188 80.6451H622.063V86.5044H616.188V80.6451ZM616.188 88.6399H622.063V94.5254H616.188V88.6399ZM616.188 96.6503H622.063V102.52H616.188V96.6503ZM616.188 104.65H622.063V110.525H616.188V104.65ZM607.625 48.6343H613.479V54.4884H607.625V48.6343ZM607.625 56.6239H613.479V62.5093H607.625V56.6239ZM607.625 64.6343H613.479V70.504H607.625V64.6343ZM607.625 72.6291H613.479V78.504H607.625V72.6291ZM607.625 80.6447H613.479V86.504H607.625V80.6447ZM607.625 88.6395H613.479V94.5249H607.625V88.6395ZM607.625 96.6499H613.479V102.52H607.625V96.6499ZM607.625 104.65H613.479V110.525H607.625V104.65ZM599.021 48.6339H604.896V54.488H599.021V48.6339ZM599.021 56.6235H604.896V62.5089H599.021V56.6235ZM599.021 64.6339H604.896V70.5036H599.021V64.6339ZM599.021 72.6287H604.896V78.5036H599.021V72.6287ZM599.021 80.6443H604.896V86.5036H599.021V80.6443ZM599.021 88.6391H604.896V94.5245H599.021V88.6391ZM599.021 96.6495H604.896V102.519H599.021V96.6495ZM599.021 104.649H604.896V110.524H599.021V104.649ZM590.459 48.6335H596.313V54.4876H590.459V48.6335ZM590.459 56.6231H596.313V62.5085L590.459 62.5033V56.6231ZM590.459 64.6335H596.313V70.5032H590.459V64.6335ZM590.459 72.6283H596.313V78.5032L590.459 78.5084V72.6283ZM590.459 80.6439H596.313V86.5032H590.459V80.6439ZM590.459 88.6387H596.313V94.5241H590.459V88.6387ZM590.459 96.6491H596.313V102.519H590.459V96.6491ZM590.459 104.649H596.313V110.524H590.459V104.649ZM581.88 48.6331H587.735V54.4872H581.88V48.6331ZM581.88 56.6227H587.735V62.5081H581.88V56.6227ZM581.88 64.6331H587.735V70.5028H581.88V64.6331ZM581.88 72.6279H587.735V78.5028H581.88V72.6279ZM581.88 80.6435H587.735V86.5028H581.88V80.6435ZM581.88 88.6383H587.735V94.5237H581.88V88.6383ZM581.88 96.6487H587.735V102.518H581.88V96.6487ZM581.88 104.649H587.735V110.524H581.88V104.649Z" fill="black"/>
<path d="M75.2247 209.999H617.865L627.167 194.868H80.7135L75.2247 209.999Z" fill="black"/>
<path d="M165.958 54.6119H230.515V77.7159H165.958V54.6119Z" fill="black"/>
<path d="M165.958 80.4252H230.515V103.529H165.958V80.4252Z" fill="black"/>
<path d="M165.958 106.239H230.515V129.348H165.958V106.239Z" fill="black"/>
<path d="M233.905 54.6119H298.462V77.7159H233.905V54.6119Z" fill="black"/>
<path d="M233.905 80.4252H298.462V103.529H233.905V80.4252Z" fill="black"/>
<path d="M233.905 106.239H298.462V129.348H233.905V106.239Z" fill="black"/>
<path d="M301.878 54.6119H366.435V77.7159H301.878V54.6119Z" fill="black"/>
<path d="M301.878 80.4252H366.435V103.529H301.878V80.4252Z" fill="black"/>
<path d="M301.878 106.239H366.435V129.348H301.878V106.239Z" fill="black"/>
<path d="M369.825 54.6119H434.382V77.7159H369.825V54.6119Z" fill="black"/>
<path d="M369.825 80.4252H434.382V103.529H369.825V80.4252Z" fill="black"/>
<path d="M369.825 106.239H434.382V129.348H369.825V106.239Z" fill="black"/>
<path d="M437.865 54.6119H502.438V77.7159H437.865V54.6119Z" fill="black"/>
<path d="M437.865 80.4252H502.438V103.529H437.865V80.4252Z" fill="black"/>
<path d="M437.865 106.239H502.438V129.348H437.865V106.239Z" fill="black"/>
<path d="M579.211 122.639L567.482 134.389H149.136L128.99 117.586H-0.37381L78.1995 188.149H631.293L671.621 122.638L579.211 122.639ZM103.491 153.436C99.9445 153.436 97.0799 150.795 97.0799 147.545C97.0799 144.295 99.9549 141.67 103.491 141.67C107.054 141.67 109.934 144.301 109.934 147.545C109.934 150.795 107.054 153.436 103.491 153.436Z" fill="black"/>
</g>
<defs>
<clipPath id="clip0_1_102">
<rect width="672" height="210" fill="white"/>
</clipPath>
</defs>
</svg>
